<svg id="Layer_1" data-name="Layer 1" xmlns="http://www.w3.org/2000/svg" viewBox="0 0 767 265"><title>elucidat-logo</title><path d="M615.287,74.976c-.7,0-1.4.029-2.1.053a53.038,53.038,0,0,0-80.96-28.969,100.464,100.464,0,0,0-125.7-32.128A100.451,100.451,0,0,0,287.694,37.456q-1.958.936-3.86,1.961A92.959,92.959,0,1,0,239.959,214.33a93.567,93.567,0,0,0,16.528-1.466,57.6,57.6,0,0,0,91.153,11.171,100.251,100.251,0,0,0,23.267,12.628,57.1,57.1,0,0,0,12.627,3.881,100.534,100.534,0,0,0,67.063-7.392,100.424,100.424,0,0,0,135.031-48.175,59,59,0,1,0,29.659-110Z" style="fill:#28b7dd"/><path d="M167.766,151.288V45.835H19.1V65.169H35.686V165.348H19.1v19.139H124.886V148.359H103.025v15.623H61.256V124.926h45.673V104.42H61.256V66.341H100.1V81.572h21.86V64.388h21.215v88.463c0,27.144,14.638,32.416,30.448,32.416a71.106,71.106,0,0,0,8.978-.585V164.763s-1.952.195-4.684.195C169.717,164.958,167.766,160.271,167.766,151.288ZM288.2,161.833V84.893H248.184v18.551h15.224v25.777c0,17.966-10.344,35.542-27.521,35.542-12.491,0-15.614-8.2-15.614-20.114V84.893H180.065v18.551h15.419v45.5c0,27.144,12.687,37.885,32.6,37.885,24.984,0,35.133-18.551,36.3-21.872h.391s-.195,2.148-.195,4.686v3.712c0,7.03,4.1,11.131,12.882,11.131h24.593V166.13h-9.563C289.758,166.13,288.2,164.569,288.2,161.833Zm70.855,4.1c-16.98,0-31.228-11.13-31.228-31.634,0-18.162,11.124-30.66,29.277-30.66,8.392,0,18.542,3.124,18.542,9.764v6.639h21.471V106.374c0-17.576-24.2-23.825-40.794-23.825-30.644,0-53.481,22.653-53.481,52.336,0,32.221,25.765,51.945,54.848,51.945,18.932,0,34.351-8.984,41.183-15.426l-8.784-17.577C384.621,158.123,373.105,165.934,359.051,165.934ZM449.6,45.835H424.614V67.9H449.6Zm0,39.058H409.391v18.551H424.81v62.49H410.367v18.553h53.48V165.934H449.6Zm118.173,76.745V45.835H527.76V64.388h15.42V89.579a58.966,58.966,0,0,0,.39,7.03h-.39s-7.418-14.06-28.693-14.06c-26.935,0-45.478,20.5-45.478,52.14,0,30.856,16.98,52.141,43.526,52.141,24.789,0,32.6-18.551,32.6-18.551h.39a15.538,15.538,0,0,0-.586,4.49v1.173c0,5.663,3.71,10.545,12.688,10.545h23.422V165.934h-8.978C569.333,165.934,567.772,164.569,567.772,161.638Zm-49.185,4.3c-14.445,0-24.594-12.3-24.594-31.245,0-19.723,11.321-30.854,25.374-30.854,16.395,0,24.4,15.232,24.4,31.441C543.764,156.561,531.664,165.934,518.587,165.934Zm157.3-4.3V121.8c0-25.386-14.247-39.251-40.988-39.251-24.008,0-39.427,12.3-39.427,12.3l9.173,17.186s13.273-9.569,28.107-9.569c10.344,0,18.347,4.49,18.347,17.184v3.321h-6.246c-16,0-56.018,3.125-56.018,33.588,0,20.309,16,30.269,32.987,30.269a34.654,34.654,0,0,0,31.425-19.136h.39a19.331,19.331,0,0,0-.586,5.075v1.173c0,5.663,3.514,10.545,12.687,10.545h23.422V165.934h-8.979C677.448,165.934,675.885,164.569,675.885,161.638Zm-24.593-20.31c0,12.5-9.563,26.951-23.031,26.951-9.174,0-14.444-6.249-14.444-13.67,0-15.038,23.617-16.6,33.377-16.6h4.1ZM742.4,164.763c-7.026,0-19.908-2.343-19.908-19.332V103.444h22.641V84.893H722.5V57.748H698.487V84.893h-16v18.551h15.226v44.524c0,33.394,27.52,37.5,41.573,37.5a45.566,45.566,0,0,0,7.612-.586V164.569S745.137,164.763,742.4,164.763Z" style="fill:#1e2446"/><circle cx="630.86" cy="238.134" r="20.749" style="fill:#1167af"/><path d="M615.532,199.981a66.022,66.022,0,0,1-26.573-5.589,107.545,107.545,0,0,1-30.84,35.14,40.91,40.91,0,0,0,74.33-31.758A65.844,65.844,0,0,1,615.532,199.981Z" style="fill:#1167af"/></svg>